<?xml version="1.0" encoding="UTF-8"?>
<svg width="23px" height="12px" viewBox="0 0 23 12" version="1.1" xmlns="http://www.w3.org/2000/svg" xmlns:xlink="http://www.w3.org/1999/xlink">
    <title>8664381B-EC83-40BA-A1C3-65C6DFBFD4FA</title>
    <g id="index" stroke="none" stroke-width="1" fill="none" fill-rule="evenodd">
        <g transform="translate(-234.000000, -863.000000)" fill="#C4AC65" id="文學">
            <g transform="translate(-135.000000, 782.000000)">
                <g id="葉石濤" transform="translate(347.000000, 0.000000)">
                    <g id="icon/next/static-copy-7" transform="translate(22.000000, 81.000000)">
                        <path d="M14.6621605,0.221236364 C14.8569485,-0.0159928192 15.1967686,-0.0672675035 15.4518052,0.0907777729 L15.5136651,0.134663446 L22.7452996,5.96971354 L15.5160365,11.8634132 C15.2578554,12.0738969 14.8764307,12.0370505 14.6641007,11.7811144 C14.4681038,11.5448657 14.4846982,11.204518 14.6914774,10.9880036 L14.7471214,10.9365868 L20.8331579,5.9742 L14.7494928,1.06533655 C14.5101827,0.872242357 14.4584582,0.535377242 14.6178899,0.282558299 L14.6621605,0.221236364 Z" id="Path-2"></path>
                        <path d="M21.4868421,5.4 C21.8211197,5.4 22.0921053,5.66862915 22.0921053,6 C22.0921053,6.3077015 21.8584494,6.5613043 21.5574286,6.59596336 L21.4868421,6.6 L0.605263158,6.6 C0.270985546,6.6 0,6.33137085 0,6 C0,5.6922985 0.233655905,5.4386957 0.534676687,5.40403664 L0.605263158,5.4 L21.4868421,5.4 Z" id="Path"></path>
                    </g>
                </g>
            </g>
        </g>
    </g>
</svg>