<?xml version="1.0" encoding="UTF-8"?>
<svg width="208px" height="50px" viewBox="0 0 208 50" version="1.1" xmlns="http://www.w3.org/2000/svg" xmlns:xlink="http://www.w3.org/1999/xlink">
    <title>D360B857-8323-4446-8495-E0CC4AB812EC</title>
    <defs>
        <polygon id="path-1" points="0.18072 0.0648 14.622 0.0648 14.622 10.284864 0.18072 10.284864"></polygon>
    </defs>
    <g id="index" stroke="none" stroke-width="1" fill="none" fill-rule="evenodd">
        <g transform="translate(-536.000000, -21.000000)" id="material/nav/laptop">
            <g transform="translate(0.000000, -1.000000)">
                <g id="logo" transform="translate(536.000000, 22.935200)">
                    <polygon id="Fill-1" fill="#FEFEFE" points="2.3412 4.05792 32.32464 4.05792 32.32464 2.01696 2.3412 2.01696"></polygon>
                    <polygon id="Fill-2" fill="#FEFEFE" points="3.19272 7.57776 31.47288 7.57776 31.47288 5.5368 3.19272 5.5368"></polygon>
                    <polygon id="Fill-3" fill="#FEFEFE" points="16.31232 6.55704 18.35328 6.55704 18.35328 0.39744 16.31232 0.39744"></polygon>
                    <polygon id="Fill-4" fill="#FEFEFE" points="16.31232 29.95728 18.35328 29.95728 18.35328 23.79744 16.31232 23.79744"></polygon>
                    <path d="M5.7468,12.22872 L28.91904,12.22872 L28.91904,11.02968 L5.7468,11.02968 L5.7468,12.22872 Z M3.70584,14.26968 L30.96,14.26968 L30.96,8.98872 L3.70584,8.98872 L3.70584,14.26968 Z" id="Fill-5" fill="#FEFEFE"></path>
                    <polygon id="Fill-6" fill="#FEFEFE" points="0 21.625296 2.04096 21.625296 2.04096 17.512656 32.62488 17.575536 32.62488 21.692256 34.66584 21.692256 34.66584 15.538656 0 15.467616"></polygon>
                    <polygon id="Fill-7" fill="#FEFEFE" points="3.39024 20.9376 27.3096 20.9376 27.3096 18.89664 3.39024 18.89664"></polygon>
                    <polygon id="Fill-8" fill="#FEFEFE" points="30.96 24.177552 4.30056 24.177552 4.30056 20.757072 6.34152 20.757072 6.34152 22.136592 28.91904 22.136592 28.91904 19.197072 30.96 19.197072"></polygon>
                    <polygon id="Fill-9" fill="#FEFEFE" points="1.48944 31.4976 33.1764 31.4976 33.1764 29.45664 1.48944 29.45664"></polygon>
                    <polygon id="Fill-10" fill="#FEFEFE" points="3.21288 27.8976 31.45296 27.8976 31.45296 25.85664 3.21288 25.85664"></polygon>
                    <polygon id="Fill-11" fill="#FEFEFE" points="51.15624 21.72384 71.51976 21.72384 71.51976 19.41048 51.15624 19.41048"></polygon>
                    <polygon id="Fill-12" fill="#FEFEFE" points="51.15624 26.64216 71.51976 26.64216 71.51976 24.3288 51.15624 24.3288"></polygon>
                    <polygon id="Fill-13" fill="#FEFEFE" points="60.18144 11.50056 62.49456 11.50056 62.49456 0.45912 60.18144 0.45912"></polygon>
                    <polygon id="Fill-14" fill="#FEFEFE" points="60.18144 33.51696 62.49456 33.51696 62.49456 20.01456 60.18144 20.01456"></polygon>
                    <polygon id="Fill-15" fill="#FEFEFE" points="77.940816 31.190064 75.627696 31.190064 75.627696 12.731184 47.048016 12.660144 47.048016 31.113024 44.734896 31.113024 44.734896 10.341264 77.940816 10.423824"></polygon>
                    <polygon id="Fill-16" fill="#FEFEFE" points="46.3356 7.22832 76.3404 7.22832 76.3404 4.9152 46.3356 4.9152"></polygon>
                    <polygon id="Fill-17" fill="#FEFEFE" points="61.711416 21.311736 59.941416 19.822536 67.526616 10.805976 69.296616 12.294936"></polygon>
                    <polygon id="Fill-18" fill="#FEFEFE" points="58.313208 18.041616 53.826168 12.283536 55.645848 10.855776 59.863608 16.230816"></polygon>
                    <polygon id="Fill-19" fill="#FEFEFE" points="119.37552 6.267912 97.64232 6.267912 98.70936 3.954792 119.37552 3.954792"></polygon>
                    <polygon id="Fill-20" fill="#FEFEFE" points="120.384504 32.346696 94.224504 32.346696 94.224504 19.424136 96.537624 19.424136 96.537624 30.033336 118.071384 30.033336 118.071384 20.969016 99.932424 20.969016 105.324504 18.719016 120.384504 18.719016"></polygon>
                    <polygon id="Fill-21" fill="#FEFEFE" points="98.207928 18.234504 92.167128 8.516664 94.131768 7.295544 100.172568 17.013384"></polygon>
                    <g id="Group-59" transform="translate(43.000000, 0.175200)">
                        <g id="Group-24" transform="translate(45.560000, 0.000000)">
                            <mask id="mask-2" fill="white">
                                <use xlink:href="#path-1"></use>
                            </mask>
                            <g id="Clip-23"></g>
                            <path d="M0.8304,10.284864 L0.18072,8.064864 C5.98224,6.367344 10.42344,3.525984 12.68592,0.064704 L14.622,1.330224 C12.05832,5.252544 7.1604,8.432784 0.8304,10.284864" id="Fill-22" fill="#FEFEFE" mask="url(#mask-2)"></path>
                        </g>
                        <path d="M43.919384,23.071896 L43.292744,20.845416 C55.378424,17.443176 67.283624,11.425176 76.861544,2.958456 L78.393464,4.691496 C68.552744,13.390536 56.342984,19.574616 43.919384,23.071896" id="Fill-25" fill="#FEFEFE"></path>
                        <polygon id="Fill-27" fill="#FEFEFE" points="86.7302 31.298208 85.39172 29.411568 101.51444 17.972928 101.51444 0.278208 103.82732 0.278208 103.82732 19.167648"></polygon>
                        <polygon id="Fill-29" fill="#FEFEFE" points="120.520496 31.457832 102.044096 19.542312 103.297616 17.598312 121.774256 29.513832"></polygon>
                        <polygon id="Fill-31" fill="#FEFEFE" points="164.63504 21.799704 162.32168 21.799704 162.32168 9.458904 130.58864 9.409464 130.58864 21.746664 128.27552 21.746664 128.27552 7.092984 164.63504 7.149384"></polygon>
                        <polygon id="Fill-33" fill="#FEFEFE" points="145.30568 29.53728 147.61904 29.53728 147.61904 18.85728 145.30568 18.85728"></polygon>
                        <polygon id="Fill-35" fill="#FEFEFE" points="130.61888 30.98352 162.30584 30.98352 162.30584 28.67016 130.61888 28.67016"></polygon>
                        <polygon id="Fill-36" fill="#FEFEFE" points="132.34232 25.86384 160.58216 25.86384 160.58216 23.55048 132.34232 23.55048"></polygon>
                        <path d="M136.22912,17.70072 L156.69584,17.70072 L156.69584,14.89464 L136.22912,14.89464 L136.22912,17.70072 Z M133.916,20.01408 L159.0092,20.01408 L159.0092,12.58176 L133.916,12.58176 L133.916,20.01408 Z" id="Fill-37" fill="#FEFEFE"></path>
                        <polygon id="Fill-38" fill="#FEFEFE" points="145.29848 8.2776 147.61184 8.2776 147.61184 0.6972 145.29848 0.6972"></polygon>
                        <polygon id="Fill-39" fill="#FEFEFE" points="138.541592 8.99592 134.177192 3.32232 136.010792 1.91208 140.374952 7.58568"></polygon>
                        <polygon id="Fill-40" fill="#FEFEFE" points="154.426136 8.99592 152.592776 7.58568 156.956936 1.91208 158.790296 3.32232"></polygon>
                        <path d="M148.189424,28.842192 L147.475904,28.842192 L147.475904,27.952512 C147.475904,27.952512 147.538304,28.293792 147.731024,28.506192 C147.901184,28.693152 148.189424,28.842192 148.189424,28.842192" id="Fill-41" fill="#FEFEFE"></path>
                        <path d="M144.838784,28.842192 L145.445264,28.842192 L145.445264,27.952512 C145.445264,27.952512 145.392944,28.293792 145.228304,28.506192 C145.083824,28.693152 144.838784,28.842192 144.838784,28.842192" id="Fill-42" fill="#FEFEFE"></path>
                        <polygon id="Fill-43" fill="#FEFEFE" points="6.63488 39.353208 6.63488 40.760088 4.25768 40.760088 4.25768 47.298888 2.58656 47.298888 2.58656 40.760088 0.19856 40.760088 0.19856 39.353208"></polygon>
                        <path d="M11.161952,44.296416 L13.196912,44.296416 L12.193232,41.169936 L11.161952,44.296416 Z M11.271392,39.353136 L13.150112,39.353136 L15.961232,47.299056 L14.160752,47.299056 L13.636592,45.665616 L10.710272,45.665616 L10.171712,47.299056 L8.435072,47.299056 L11.271392,39.353136 Z" id="Fill-44" fill="#FEFEFE"></path>
                        <polygon id="Fill-45" fill="#FEFEFE" points="19.04528 47.29896 20.6948 47.29896 20.6948 39.35328 19.04528 39.35328"></polygon>
                        <polygon id="Fill-46" fill="#FEFEFE" points="24.428288 39.353208 26.168768 39.353208 29.323088 44.893608 29.323088 39.353208 30.870128 39.353208 30.870128 47.298888 29.210048 47.298888 25.975328 41.661048 25.975328 47.298888 24.428288 47.298888"></polygon>
                        <path d="M36.798608,44.296416 L38.833568,44.296416 L37.829888,41.169936 L36.798608,44.296416 Z M36.908048,39.353136 L38.786768,39.353136 L41.597888,47.299056 L39.797408,47.299056 L39.273248,45.665616 L36.346928,45.665616 L35.808368,47.299056 L34.071728,47.299056 L36.908048,39.353136 Z" id="Fill-47" fill="#FEFEFE"></path>
                        <polygon id="Fill-48" fill="#FEFEFE" points="44.789744 39.353208 46.530224 39.353208 49.684544 44.893608 49.684544 39.353208 51.231584 39.353208 51.231584 47.298888 49.571504 47.298888 46.336784 41.661048 46.336784 47.298888 44.789744 47.298888"></polygon>
                        <polygon id="Fill-49" fill="#FEFEFE" points="60.261872 47.298984 60.261872 39.353304 61.911392 39.353304 61.911392 42.382824 65.000192 42.382824 65.000192 39.353304 66.649712 39.353304 66.649712 47.298984 65.000192 47.298984 65.000192 43.752024 61.911392 43.752024 61.911392 47.298984"></polygon>
                        <path d="M72.616136,44.296416 L74.651096,44.296416 L73.647416,41.169936 L72.616136,44.296416 Z M72.725576,39.353136 L74.604296,39.353136 L77.415416,47.299056 L75.614936,47.299056 L75.090776,45.665616 L72.164456,45.665616 L71.625896,47.299056 L69.889256,47.299056 L72.725576,39.353136 Z" id="Fill-50" fill="#FEFEFE"></path>
                        <polygon id="Fill-51" fill="#FEFEFE" points="80.634104 39.353208 82.294424 39.353208 82.294424 45.870408 86.261864 45.870408 86.261864 47.298888 80.634104 47.298888"></polygon>
                        <polygon id="Fill-52" fill="#FEFEFE" points="89.585816 39.353208 91.246136 39.353208 91.246136 45.870408 95.213576 45.870408 95.213576 47.298888 89.585816 47.298888"></polygon>
                        <path d="M108.699344,45.38532 C109.085504,44.90028 109.278944,44.21028 109.278944,43.31532 C109.278944,42.4242 109.085504,41.73516 108.699344,41.2482 C108.312944,40.761 107.790944,40.51764 107.133344,40.51764 C106.475744,40.51764 105.950864,40.76028 105.559424,41.24532 C105.167504,41.73036 104.971664,42.42036 104.971664,43.31532 C104.971664,44.21028 105.167504,44.90028 105.559424,45.38532 C105.950864,45.87036 106.475744,46.113 107.133344,46.113 C107.790944,46.113 108.312944,45.87036 108.699344,45.38532 M109.737104,46.59276 C109.136864,47.211 108.269024,47.52012 107.133344,47.52012 C105.997664,47.52012 105.129824,47.211 104.529584,46.59276 C103.724624,45.8346 103.322144,44.74212 103.322144,43.31532 C103.322144,41.85996 103.724624,40.76748 104.529584,40.03788 C105.129824,39.41988 105.997664,39.11052 107.133344,39.11052 C108.269024,39.11052 109.136864,39.41988 109.737104,40.03788 C110.538464,40.76748 110.939264,41.85996 110.939264,43.31532 C110.939264,44.74212 110.538464,45.8346 109.737104,46.59276" id="Fill-53" fill="#FEFEFE"></path>
                        <polygon id="Fill-54" fill="#FEFEFE" points="114.413984 39.363984 120.079424 39.363984 120.079424 40.760064 116.063504 40.760064 116.063504 42.587664 119.583584 42.587664 119.583584 43.967664 116.063504 43.967664 116.063504 47.299104 114.413984 47.299104"></polygon>
                        <polygon id="Fill-55" fill="#FEFEFE" points="128.640896 39.363984 134.306336 39.363984 134.306336 40.760064 130.290416 40.760064 130.290416 42.587664 133.810496 42.587664 133.810496 43.967664 130.290416 43.967664 130.290416 47.299104 128.640896 47.299104"></polygon>
                        <path d="M139.151456,44.296416 L141.186656,44.296416 L140.182736,41.169936 L139.151456,44.296416 Z M139.261136,39.353136 L141.139856,39.353136 L143.950976,47.299056 L142.150496,47.299056 L141.626096,45.665616 L138.700016,45.665616 L138.161456,47.299056 L136.424816,47.299056 L139.261136,39.353136 Z" id="Fill-56" fill="#FEFEFE"></path>
                        <path d="M152.440496,39.353208 L154.829696,39.353208 L154.829696,47.298888 L153.282416,47.298888 L153.282416,41.924568 C153.282416,41.770008 153.284336,41.553528 153.287936,41.274888 C153.291296,40.996488 153.293216,40.781688 153.293216,40.630728 L151.787456,47.298888 L150.174176,47.298888 L148.678736,40.630728 C148.678736,40.781688 148.680656,40.996488 148.684496,41.274888 C148.687616,41.553528 148.689536,41.770008 148.689536,41.924568 L148.689536,47.298888 L147.142736,47.298888 L147.142736,39.353208 L149.558576,39.353208 L151.005296,45.600888 L152.440496,39.353208 Z" id="Fill-57" fill="#FEFEFE"></path>
                        <polygon id="Fill-58" fill="#FEFEFE" points="164.44988 40.76016 160.24508 40.76016 160.24508 42.44736 164.105 42.44736 164.105 43.82736 160.24508 43.82736 160.24508 45.87048 164.64404 45.87048 164.64404 47.29896 158.62244 47.29896 158.62244 39.35328 164.44988 39.35328"></polygon>
                    </g>
                </g>
            </g>
        </g>
    </g>
</svg>